G04 ================== begin FILE IDENTIFICATION RECORD ==================*
G04 Layout Name:  C:/Users/user/Desktop/exam/ex1/allegro/ex2_rlc.brd*
G04 Film Name:    BOTTOM*
G04 File Format:  Gerber RS274X*
G04 File Origin:  Cadence Allegro 17.2-S038*
G04 Origin Date:  Thu Jul 11 11:34:40 2019*
G04 *
G04 Layer:  ETCH/BOTTOM*
G04 Layer:  PIN/BOTTOM*
G04 Layer:  VIA CLASS/BOTTOM*
G04 *
G04 Offset:    (0.000 0.000)*
G04 Mirror:    No*
G04 Mode:      Positive*
G04 Rotation:  0*
G04 FullContactRelief:  No*
G04 UndefLineWidth:     0.000*
G04 ================== end FILE IDENTIFICATION RECORD ====================*
%FSLAX25Y25*MOMM*%
%IR0*IPPOS*OFA0.00000B0.00000*MIA0B0*SFA1.00000B1.00000*%
%ADD11C,1.524*%
%ADD12C,1.651*%
%ADD10C,.635*%
%ADD13C,.3*%
%ADD15C,2.144*%
%ADD14C,2.036*%
%ADD17C,2.164*%
%ADD16C,2.272*%
G75*
%LPD*%
G75*
G36*
G01X355600Y2349500D02*
X1536700D01*
X1790700Y2095500D01*
Y711200D01*
X1600200Y520700D01*
X825700D01*
Y825700D01*
X355600D01*
Y2349500D01*
G37*
G36*
G01X4457700Y4216400D02*
X6159300D01*
Y4190800D01*
X6527800D01*
Y1092200D01*
X5346700D01*
Y635000D01*
X2247900D01*
Y889000D01*
X1821700D01*
Y2108300D01*
X1549500Y2380500D01*
X508000D01*
Y3416300D01*
X2247900D01*
Y4013200D01*
X4457700D01*
Y4216400D01*
G37*
%LPC*%
G75*
G54D15*
X1016000Y1778000D03*
X6032500Y2794000D03*
G54D14*
X1016000Y2032000D03*
X6032500Y2540000D03*
G54D17*
X4635500Y1778000D03*
G54D16*
Y2794000D03*
X2032000D03*
X1016000D03*
%LPD*%
G75*
G54D10*
X571500Y571500D03*
X558800Y4432300D03*
X6413500Y571500D03*
Y4445000D03*
G54D11*
X1016000Y1778000D03*
Y2032000D03*
X6032500Y2540000D03*
Y2794000D03*
G54D12*
X1016000D03*
X2032000D03*
X4635500Y1778000D03*
Y2794000D03*
G54D13*
G01X1016000Y1925100D02*
Y2032000D01*
G01D02*
Y2138900D01*
G01X909100Y2032000D02*
X1016000D01*
G01D02*
X1122900D01*
G01X4635500Y1664700D02*
Y1778000D01*
G01D02*
Y1891300D01*
G01X4522200Y1778000D02*
X4635500D01*
G01D02*
X4748800D01*
G01X6032500Y2433100D02*
Y2540000D01*
G01D02*
Y2646900D01*
G01X5925600Y2540000D02*
X6032500D01*
G01D02*
X6139400D01*
M02*
