G04 ================== begin FILE IDENTIFICATION RECORD ==================*
G04 Layout Name:  C:/Users/user/Desktop/exam/ex1/allegro/ex2_rlc.brd*
G04 Film Name:    DirllDraw*
G04 File Format:  Gerber RS274X*
G04 File Origin:  Cadence Allegro 17.2-S038*
G04 Origin Date:  Thu Jul 11 11:34:40 2019*
G04 *
G04 Layer:  MANUFACTURING/NCLEGEND-1-2*
G04 Layer:  BOARD GEOMETRY/DESIGN_OUTLINE*
G04 *
G04 Offset:    (0.000 0.000)*
G04 Mirror:    No*
G04 Mode:      Positive*
G04 Rotation:  0*
G04 FullContactRelief:  No*
G04 UndefLineWidth:     0.100*
G04 ================== end FILE IDENTIFICATION RECORD ====================*
%FSLAX25Y25*MOMM*%
%IR0*IPPOS*OFA0.00000B0.00000*MIA0B0*SFA1.00000B1.00000*%
%AMMACRO12*
1,1,.1,-.508,.3175*
20,1,.1,-.508,.3175,-.500282,.405713,0.0*
1,1,.1,-.500282,.405713*
20,1,.1,-.500282,.405713,-.477364,.491246,0.0*
1,1,.1,-.477364,.491246*
20,1,.1,-.477364,.491246,-.439941,.5715,0.0*
1,1,.1,-.439941,.5715*
20,1,.1,-.439941,.5715,-.389151,.644036,0.0*
1,1,.1,-.389151,.644036*
20,1,.1,-.389151,.644036,-.326536,.706651,0.0*
1,1,.1,-.326536,.706651*
20,1,.1,-.326536,.706651,-.254,.757441,0.0*
1,1,.1,-.254,.757441*
20,1,.1,-.254,.757441,-.173746,.794864,0.0*
1,1,.1,-.173746,.794864*
20,1,.1,-.173746,.794864,-.088213,.817782,0.0*
1,1,.1,-.088213,.817782*
20,1,.1,-.088213,.817782,0.0,.8255,0.0*
1,1,.1,0.0,.8255*
20,1,.1,0.0,.8255,.088213,.817782,0.0*
1,1,.1,.088213,.817782*
20,1,.1,.088213,.817782,.173746,.794864,0.0*
1,1,.1,.173746,.794864*
20,1,.1,.173746,.794864,.254,.757441,0.0*
1,1,.1,.254,.757441*
20,1,.1,.254,.757441,.326536,.706651,0.0*
1,1,.1,.326536,.706651*
20,1,.1,.326536,.706651,.389151,.644036,0.0*
1,1,.1,.389151,.644036*
20,1,.1,.389151,.644036,.439941,.5715,0.0*
1,1,.1,.439941,.5715*
20,1,.1,.439941,.5715,.477364,.491246,0.0*
1,1,.1,.477364,.491246*
20,1,.1,.477364,.491246,.500282,.405713,0.0*
1,1,.1,.500282,.405713*
20,1,.1,.500282,.405713,.508,.3175,0.0*
1,1,.1,.508,.3175*
20,1,.1,.508,.3175,.508,-.3175,0.0*
1,1,.1,.508,-.3175*
20,1,.1,.508,-.3175,.500282,-.405713,0.0*
1,1,.1,.500282,-.405713*
20,1,.1,.500282,-.405713,.477364,-.491246,0.0*
1,1,.1,.477364,-.491246*
20,1,.1,.477364,-.491246,.439941,-.5715,0.0*
1,1,.1,.439941,-.5715*
20,1,.1,.439941,-.5715,.389151,-.644036,0.0*
1,1,.1,.389151,-.644036*
20,1,.1,.389151,-.644036,.326536,-.706651,0.0*
1,1,.1,.326536,-.706651*
20,1,.1,.326536,-.706651,.254,-.757441,0.0*
1,1,.1,.254,-.757441*
20,1,.1,.254,-.757441,.173746,-.794864,0.0*
1,1,.1,.173746,-.794864*
20,1,.1,.173746,-.794864,.088213,-.817782,0.0*
1,1,.1,.088213,-.817782*
20,1,.1,.088213,-.817782,0.0,-.8255,0.0*
1,1,.1,0.0,-.8255*
20,1,.1,0.0,-.8255,-.088213,-.817782,0.0*
1,1,.1,-.088213,-.817782*
20,1,.1,-.088213,-.817782,-.173746,-.794864,0.0*
1,1,.1,-.173746,-.794864*
20,1,.1,-.173746,-.794864,-.254,-.757441,0.0*
1,1,.1,-.254,-.757441*
20,1,.1,-.254,-.757441,-.326536,-.706651,0.0*
1,1,.1,-.326536,-.706651*
20,1,.1,-.326536,-.706651,-.389151,-.644036,0.0*
1,1,.1,-.389151,-.644036*
20,1,.1,-.389151,-.644036,-.439941,-.5715,0.0*
1,1,.1,-.439941,-.5715*
20,1,.1,-.439941,-.5715,-.477364,-.491246,0.0*
1,1,.1,-.477364,-.491246*
20,1,.1,-.477364,-.491246,-.500282,-.405713,0.0*
1,1,.1,-.500282,-.405713*
20,1,.1,-.500282,-.405713,-.508,-.3175,0.0*
1,1,.1,-.508,-.3175*
20,1,.1,-.508,-.3175,-.508,.3175,0.0*
1,1,.1,-.508,.3175*
%
%ADD12MACRO12*%
%AMMACRO11*
1,1,.1,.635,0.0*
20,1,.1,.635,0.0,.3175,.549926,0.0*
1,1,.1,.3175,.549926*
20,1,.1,.3175,.549926,-.3175,.549926,0.0*
1,1,.1,-.3175,.549926*
20,1,.1,-.3175,.549926,-.635,0.0,0.0*
1,1,.1,-.635,0.0*
20,1,.1,-.635,0.0,-.3175,-.549926,0.0*
1,1,.1,-.3175,-.549926*
20,1,.1,-.3175,-.549926,.3175,-.549926,0.0*
1,1,.1,.3175,-.549926*
20,1,.1,.3175,-.549926,.635,0.0,0.0*
1,1,.1,.635,0.0*
%
%ADD11MACRO11*%
%AMMACRO10*
1,1,.1,-.666,-.952*
20,1,.1,-.666,-.952,.667,.953,0.0*
1,1,.1,.667,.953*
1,1,.1,-.666,.953*
20,1,.1,-.666,.953,.667,-.952,0.0*
1,1,.1,.667,-.952*
%
%ADD10MACRO10*%
%ADD13C,.1*%
G75*
%LPD*%
G75*
G54D10*
X571500Y571500D03*
X558800Y4432300D03*
X6413500Y571500D03*
Y4445000D03*
X8317000Y1509000D03*
G54D11*
X1016000Y1778000D03*
Y2032000D03*
X6032500Y2540000D03*
Y2794000D03*
X8317000Y2779000D03*
G54D12*
X1016000Y2794000D03*
X2032000D03*
X4635500Y1778000D03*
Y2794000D03*
X8317000Y2144000D03*
G54D13*
G01X0Y0D02*
Y5000000D01*
X7000000D01*
Y0D01*
X0D01*
G01X7175500Y1191500D02*
Y5016500D01*
X19771400D01*
Y1191500D01*
X7175500D01*
G01Y1826500D02*
X19771400D01*
G01X7175500Y2461500D02*
X19771400D01*
G01X7175500Y3096500D02*
X19771400D01*
G01X7175500Y3731500D02*
X19771400D01*
G01X7175500Y4366500D02*
X19771400D01*
G01X7454900Y3255200D02*
Y3572700D01*
X7604500D01*
G01X7549400Y3419200D02*
X7454900D01*
G01X7797400Y3572700D02*
X7891800D01*
G01X7844600D02*
Y3255200D01*
G01X7797400D02*
X7891800D01*
G01X8183100Y3413900D02*
X8261900D01*
Y3318700D01*
X8238200Y3286900D01*
X8210700Y3265800D01*
X8171300Y3255200D01*
X8131900Y3265800D01*
X8104400Y3286900D01*
X8080800Y3318700D01*
X8065000Y3355700D01*
X8057100Y3398100D01*
Y3435100D01*
X8065000Y3466900D01*
X8080800Y3503900D01*
X8104400Y3535700D01*
X8128000Y3556800D01*
X8159500Y3572700D01*
X8187100D01*
X8218500Y3562100D01*
X8242200Y3540900D01*
G01X8387800Y3572700D02*
Y3345200D01*
X8403500Y3297500D01*
X8435000Y3265800D01*
X8474400Y3255200D01*
X8513800Y3265800D01*
X8545300Y3297500D01*
X8561000Y3345200D01*
Y3572700D01*
G01X8710600Y3255200D02*
Y3572700D01*
X8809000D01*
X8840500Y3556800D01*
X8860200Y3535700D01*
X8868000Y3493300D01*
X8860200Y3451000D01*
X8836500Y3424500D01*
X8809000Y3408700D01*
X8710600D01*
G01X8809000D02*
X8868000Y3255200D01*
G01X9182900D02*
X9025500D01*
Y3572700D01*
X9182900D01*
G01X9119900Y3419200D02*
X9025500D01*
G01X9458500Y3731500D02*
Y1191500D01*
G01X9123800Y3890200D02*
X9222200Y4207700D01*
X9320600Y3890200D01*
G01X9285200Y4001300D02*
X9159200D01*
G01X9458400Y4207700D02*
Y3890200D01*
X9615800D01*
G01X9773300Y4207700D02*
Y3890200D01*
X9930700D01*
G01X10395200Y4207700D02*
Y3980200D01*
X10410900Y3932500D01*
X10442400Y3900800D01*
X10481800Y3890200D01*
X10521200Y3900800D01*
X10552700Y3932500D01*
X10568400Y3980200D01*
Y4207700D01*
G01X10706200Y3890200D02*
Y4207700D01*
X10887200Y3890200D01*
Y4207700D01*
G01X11064400D02*
X11158800D01*
G01X11111600D02*
Y3890200D01*
G01X11064400D02*
X11158800D01*
G01X11426500Y4207700D02*
Y3890200D01*
G01X11336000Y4207700D02*
X11517000D01*
G01X11658700Y3932500D02*
X11690200Y3906100D01*
X11725700Y3890200D01*
X11757100D01*
X11788600Y3906100D01*
X11812300Y3932500D01*
X11824100Y3969600D01*
X11816200Y4006600D01*
X11796500Y4038400D01*
X11761100Y4059500D01*
X11713800Y4070100D01*
X11686300Y4091300D01*
X11674500Y4128300D01*
X11682400Y4165400D01*
X11702000Y4191800D01*
X11729600Y4207700D01*
X11757100D01*
X11784700Y4197100D01*
X11808300Y4170700D01*
G01X12272800Y3890200D02*
X12371200Y4207700D01*
X12469600Y3890200D01*
G01X12434200Y4001300D02*
X12308200D01*
G01X12607400Y3890200D02*
Y4207700D01*
X12705800D01*
X12737300Y4191800D01*
X12757000Y4170700D01*
X12764800Y4128300D01*
X12757000Y4086000D01*
X12733300Y4059500D01*
X12705800Y4043700D01*
X12607400D01*
G01X12705800D02*
X12764800Y3890200D01*
G01X13079700D02*
X12922300D01*
Y4207700D01*
X13079700D01*
G01X13016700Y4054200D02*
X12922300D01*
G01X13583600Y4207700D02*
X13678000D01*
G01X13630800D02*
Y3890200D01*
G01X13583600D02*
X13678000D01*
G01X13855200D02*
Y4207700D01*
X14036200Y3890200D01*
Y4207700D01*
G01X14473100Y3890200D02*
Y4207700D01*
X14575500Y3943100D01*
X14677900Y4207700D01*
Y3890200D01*
G01X14843200Y4207700D02*
X14937600D01*
G01X14890400D02*
Y3890200D01*
G01X14843200D02*
X14937600D01*
G01X15126600Y4207700D02*
Y3890200D01*
X15284000D01*
G01X15441500Y4207700D02*
Y3890200D01*
X15598900D01*
G01X15787900Y4207700D02*
X15882300D01*
G01X15835100D02*
Y3890200D01*
G01X15787900D02*
X15882300D01*
G01X16047600D02*
Y4207700D01*
X16150000Y3943100D01*
X16252400Y4207700D01*
Y3890200D01*
G01X16543600D02*
X16386200D01*
Y4207700D01*
X16543600D01*
G01X16480600Y4054200D02*
X16386200D01*
G01X16779800Y4207700D02*
Y3890200D01*
G01X16689300Y4207700D02*
X16870300D01*
G01X17173400Y3890200D02*
X17016000D01*
Y4207700D01*
X17173400D01*
G01X17110400Y4054200D02*
X17016000D01*
G01X17330900Y3890200D02*
Y4207700D01*
X17429300D01*
X17460800Y4191800D01*
X17480500Y4170700D01*
X17488300Y4128300D01*
X17480500Y4086000D01*
X17456800Y4059500D01*
X17429300Y4043700D01*
X17330900D01*
G01X17429300D02*
X17488300Y3890200D01*
G01X17641800Y3932500D02*
X17673300Y3906100D01*
X17708800Y3890200D01*
X17740200D01*
X17771700Y3906100D01*
X17795400Y3932500D01*
X17807200Y3969600D01*
X17799300Y4006600D01*
X17779600Y4038400D01*
X17744200Y4059500D01*
X17696900Y4070100D01*
X17669400Y4091300D01*
X17657600Y4128300D01*
X17665500Y4165400D01*
X17685100Y4191800D01*
X17712700Y4207700D01*
X17740200D01*
X17767800Y4197100D01*
X17791400Y4170700D01*
G01X9450500Y4540200D02*
Y4857700D01*
X9529200D01*
X9560700Y4841800D01*
X9584300Y4820700D01*
X9604000Y4788900D01*
X9619800Y4751900D01*
X9623700Y4698900D01*
X9619800Y4646000D01*
X9604000Y4609000D01*
X9584300Y4577200D01*
X9560700Y4556100D01*
X9529200Y4540200D01*
X9450500D01*
G01X9773300D02*
Y4857700D01*
X9871700D01*
X9903200Y4841800D01*
X9922900Y4820700D01*
X9930700Y4778300D01*
X9922900Y4736000D01*
X9899200Y4709500D01*
X9871700Y4693700D01*
X9773300D01*
G01X9871700D02*
X9930700Y4540200D01*
G01X10119700Y4857700D02*
X10214100D01*
G01X10166900D02*
Y4540200D01*
G01X10119700D02*
X10214100D01*
G01X10403100Y4857700D02*
Y4540200D01*
X10560500D01*
G01X10718000Y4857700D02*
Y4540200D01*
X10875400D01*
G01X11513100Y4831200D02*
X11489500Y4847100D01*
X11461900Y4857700D01*
X11430400D01*
X11395000Y4841800D01*
X11367500Y4815400D01*
X11347800Y4783600D01*
X11332000Y4730700D01*
X11328100Y4683100D01*
X11336000Y4635400D01*
X11347800Y4603700D01*
X11371400Y4571900D01*
X11398900Y4550800D01*
X11426500Y4540200D01*
X11454100D01*
X11481600Y4550800D01*
X11505200Y4566700D01*
X11524900Y4587800D01*
G01X11658700Y4540200D02*
Y4857700D01*
G01X11824100D02*
Y4540200D01*
G01Y4698900D02*
X11658700D01*
G01X11957900Y4540200D02*
X12056300Y4857700D01*
X12154700Y4540200D01*
G01X12119300Y4651300D02*
X11993300D01*
G01X12292500Y4540200D02*
Y4857700D01*
X12390900D01*
X12422400Y4841800D01*
X12442100Y4820700D01*
X12449900Y4778300D01*
X12442100Y4736000D01*
X12418400Y4709500D01*
X12390900Y4693700D01*
X12292500D01*
G01X12390900D02*
X12449900Y4540200D01*
G01X12686100Y4857700D02*
Y4540200D01*
G01X12595600Y4857700D02*
X12776600D01*
G01X13001000Y4529600D02*
X12993100Y4534900D01*
Y4545500D01*
X13001000Y4550800D01*
X13008900Y4545500D01*
Y4534900D01*
X13001000Y4529600D01*
G01Y4672500D02*
X12993100Y4677800D01*
Y4688400D01*
X13001000Y4693700D01*
X13008900Y4688400D01*
Y4677800D01*
X13001000Y4672500D01*
G01X13630800Y4857700D02*
Y4540200D01*
G01X13540300Y4857700D02*
X13721300D01*
G01X13945700Y4540200D02*
X13914200Y4545500D01*
X13886700Y4566700D01*
X13863000Y4598400D01*
X13847300Y4635400D01*
X13839400Y4677800D01*
Y4720100D01*
X13847300Y4762500D01*
X13863000Y4799500D01*
X13886700Y4831200D01*
X13914200Y4852400D01*
X13945700Y4857700D01*
X13977200Y4852400D01*
X14004700Y4831200D01*
X14028400Y4799500D01*
X14044100Y4762500D01*
X14052000Y4720100D01*
Y4677800D01*
X14044100Y4635400D01*
X14028400Y4598400D01*
X14004700Y4566700D01*
X13977200Y4545500D01*
X13945700Y4540200D01*
G01X14181900D02*
Y4857700D01*
X14276300D01*
X14307800Y4841800D01*
X14331500Y4804800D01*
X14339300Y4762500D01*
X14331500Y4720100D01*
X14311800Y4688400D01*
X14276300Y4672500D01*
X14181900D01*
G01X14890400Y4857700D02*
Y4540200D01*
G01X14835300Y4751900D02*
X14945500D01*
G01X15205300Y4540200D02*
X15181700Y4545500D01*
X15158100Y4566700D01*
X15142300Y4603700D01*
X15134400Y4646000D01*
X15142300Y4688400D01*
X15158100Y4725400D01*
X15181700Y4746600D01*
X15205300Y4751900D01*
X15228900Y4746600D01*
X15252500Y4725400D01*
X15268300Y4688400D01*
X15272200Y4646000D01*
X15268300Y4603700D01*
X15252500Y4566700D01*
X15228900Y4545500D01*
X15205300Y4540200D01*
G01X15866600Y4709500D02*
X15882300Y4725400D01*
X15894100Y4751900D01*
X15902000Y4788900D01*
X15894100Y4820700D01*
X15878400Y4841800D01*
X15850800Y4857700D01*
X15744600D01*
Y4540200D01*
X15874500D01*
X15902000Y4561400D01*
X15917800Y4593100D01*
X15925600Y4630200D01*
X15917800Y4667200D01*
X15894100Y4698900D01*
X15866600Y4709500D01*
X15744600D01*
G01X16150000Y4540200D02*
X16118500Y4545500D01*
X16091000Y4566700D01*
X16067300Y4598400D01*
X16051600Y4635400D01*
X16043700Y4677800D01*
Y4720100D01*
X16051600Y4762500D01*
X16067300Y4799500D01*
X16091000Y4831200D01*
X16118500Y4852400D01*
X16150000Y4857700D01*
X16181500Y4852400D01*
X16209000Y4831200D01*
X16232700Y4799500D01*
X16248400Y4762500D01*
X16256300Y4720100D01*
Y4677800D01*
X16248400Y4635400D01*
X16232700Y4598400D01*
X16209000Y4566700D01*
X16181500Y4545500D01*
X16150000Y4540200D01*
G01X16464900Y4857700D02*
Y4540200D01*
G01X16374400Y4857700D02*
X16555400D01*
G01X16779800D02*
Y4540200D01*
G01X16689300Y4857700D02*
X16870300D01*
G01X17094700Y4540200D02*
X17063200Y4545500D01*
X17035700Y4566700D01*
X17012000Y4598400D01*
X16996300Y4635400D01*
X16988400Y4677800D01*
Y4720100D01*
X16996300Y4762500D01*
X17012000Y4799500D01*
X17035700Y4831200D01*
X17063200Y4852400D01*
X17094700Y4857700D01*
X17126200Y4852400D01*
X17153700Y4831200D01*
X17177400Y4799500D01*
X17193100Y4762500D01*
X17201000Y4720100D01*
Y4677800D01*
X17193100Y4635400D01*
X17177400Y4598400D01*
X17153700Y4566700D01*
X17126200Y4545500D01*
X17094700Y4540200D01*
G01X17307200D02*
Y4857700D01*
X17409600Y4593100D01*
X17512000Y4857700D01*
Y4540200D01*
G01X10052800Y3255200D02*
Y3572700D01*
X10202400D01*
G01X10147300Y3419200D02*
X10052800D01*
G01X10395300Y3572700D02*
X10489700D01*
G01X10442500D02*
Y3255200D01*
G01X10395300D02*
X10489700D01*
G01X10666900D02*
Y3572700D01*
X10847900Y3255200D01*
Y3572700D01*
G01X11025100D02*
X11119500D01*
G01X11072300D02*
Y3255200D01*
G01X11025100D02*
X11119500D01*
G01X11304500Y3297500D02*
X11336000Y3271100D01*
X11371500Y3255200D01*
X11402900D01*
X11434400Y3271100D01*
X11458100Y3297500D01*
X11469900Y3334600D01*
X11462000Y3371600D01*
X11442300Y3403400D01*
X11406900Y3424500D01*
X11359600Y3435100D01*
X11332100Y3456300D01*
X11320300Y3493300D01*
X11328200Y3530400D01*
X11347800Y3556800D01*
X11375400Y3572700D01*
X11402900D01*
X11430500Y3562100D01*
X11454100Y3535700D01*
G01X11619400Y3255200D02*
Y3572700D01*
G01X11784800D02*
Y3255200D01*
G01Y3413900D02*
X11619400D01*
G01X12095700Y3255200D02*
X11938300D01*
Y3572700D01*
X12095700D01*
G01X12032700Y3419200D02*
X11938300D01*
G01X12245300Y3255200D02*
Y3572700D01*
X12324000D01*
X12355500Y3556800D01*
X12379100Y3535700D01*
X12398800Y3503900D01*
X12414600Y3466900D01*
X12418500Y3413900D01*
X12414600Y3361000D01*
X12398800Y3324000D01*
X12379100Y3292200D01*
X12355500Y3271100D01*
X12324000Y3255200D01*
X12245300D01*
G01X12528700Y3149400D02*
X12764900D01*
G01X12879000Y3297500D02*
X12910500Y3271100D01*
X12946000Y3255200D01*
X12977400D01*
X13008900Y3271100D01*
X13032600Y3297500D01*
X13044400Y3334600D01*
X13036500Y3371600D01*
X13016800Y3403400D01*
X12981400Y3424500D01*
X12934100Y3435100D01*
X12906600Y3456300D01*
X12894800Y3493300D01*
X12902700Y3530400D01*
X12922300Y3556800D01*
X12949900Y3572700D01*
X12977400D01*
X13005000Y3562100D01*
X13028600Y3535700D01*
G01X13229400Y3572700D02*
X13323800D01*
G01X13276600D02*
Y3255200D01*
G01X13229400D02*
X13323800D01*
G01X13516700Y3572700D02*
X13666300D01*
X13516700Y3255200D01*
X13666300D01*
G01X13985100D02*
X13827700D01*
Y3572700D01*
X13985100D01*
G01X13922100Y3419200D02*
X13827700D01*
G01X11300600Y1413700D02*
X11324200Y1376700D01*
X11355700Y1355500D01*
X11391100Y1350200D01*
X11422600Y1355500D01*
X11454100Y1381900D01*
X11473800Y1413700D01*
X11477700Y1445400D01*
X11469900Y1482500D01*
X11442300Y1508900D01*
X11414800Y1519500D01*
X11379300D01*
G01X11414800D02*
X11438400Y1535400D01*
X11458100Y1561900D01*
X11465900Y1593600D01*
X11458100Y1625400D01*
X11438400Y1651800D01*
X11402900Y1667700D01*
X11367500Y1662400D01*
X11332100Y1641200D01*
G01X11702100Y1339600D02*
X11694200Y1344900D01*
Y1355500D01*
X11702100Y1360800D01*
X11710000Y1355500D01*
Y1344900D01*
X11702100Y1339600D01*
G01X12017000Y1350200D02*
Y1667700D01*
X11969800Y1604200D01*
G01Y1350200D02*
X12064200D01*
G01X12324000D02*
X12331900Y1419000D01*
X12343700Y1477200D01*
X12359500Y1530100D01*
X12379100Y1588300D01*
X12410600Y1667700D01*
X12253200D01*
G01X12560200Y1397800D02*
X12583800Y1371400D01*
X12611400Y1355500D01*
X12646800Y1350200D01*
X12682200Y1360800D01*
X12709800Y1381900D01*
X12729500Y1419000D01*
X12733400Y1461300D01*
X12725500Y1503700D01*
X12705800Y1530100D01*
X12678300Y1551300D01*
X12650700Y1556600D01*
X12623200Y1551300D01*
X12587800Y1530100D01*
X12599600Y1667700D01*
X12705800D01*
G01X11387200Y2937700D02*
X11355700Y2927100D01*
X11332100Y2900700D01*
X11316300Y2868900D01*
X11304500Y2826600D01*
X11300600Y2778900D01*
X11304500Y2731300D01*
X11316300Y2689000D01*
X11332100Y2657200D01*
X11355700Y2630800D01*
X11387200Y2620200D01*
X11418700Y2630800D01*
X11442300Y2657200D01*
X11458100Y2689000D01*
X11469900Y2731300D01*
X11473800Y2778900D01*
X11469900Y2826600D01*
X11458100Y2868900D01*
X11442300Y2900700D01*
X11418700Y2927100D01*
X11387200Y2937700D01*
G01X11702100Y2609600D02*
X11694200Y2614900D01*
Y2625500D01*
X11702100Y2630800D01*
X11710000Y2625500D01*
Y2614900D01*
X11702100Y2609600D01*
G01X11950100Y2657200D02*
X11977600Y2630800D01*
X12009100Y2620200D01*
X12040600Y2630800D01*
X12068200Y2662500D01*
X12087900Y2710200D01*
X12095700Y2757800D01*
Y2816000D01*
X12087900Y2863600D01*
X12068200Y2905900D01*
X12044600Y2927100D01*
X12017000Y2937700D01*
X11985500Y2927100D01*
X11961900Y2905900D01*
X11946100Y2874200D01*
X11938300Y2831900D01*
X11946100Y2794800D01*
X11965800Y2757800D01*
X11989400Y2736600D01*
X12017000Y2731300D01*
X12048500Y2741900D01*
X12072100Y2768400D01*
X12095700Y2816000D01*
G01X12331900Y2620200D02*
Y2937700D01*
X12284700Y2874200D01*
G01Y2620200D02*
X12379100D01*
G01X12694000D02*
Y2937700D01*
X12548400Y2710200D01*
X12745200D01*
G01X11387200Y1985200D02*
Y2302700D01*
X11340000Y2239200D01*
G01Y1985200D02*
X11434400D01*
G01X11702100Y1974600D02*
X11694200Y1979900D01*
Y1990500D01*
X11702100Y1995800D01*
X11710000Y1990500D01*
Y1979900D01*
X11702100Y1974600D01*
G01X12017000Y2302700D02*
X11985500Y2292100D01*
X11961900Y2265700D01*
X11946100Y2233900D01*
X11934300Y2191600D01*
X11930400Y2143900D01*
X11934300Y2096300D01*
X11946100Y2054000D01*
X11961900Y2022200D01*
X11985500Y1995800D01*
X12017000Y1985200D01*
X12048500Y1995800D01*
X12072100Y2022200D01*
X12087900Y2054000D01*
X12099700Y2096300D01*
X12103600Y2143900D01*
X12099700Y2191600D01*
X12087900Y2233900D01*
X12072100Y2265700D01*
X12048500Y2292100D01*
X12017000Y2302700D01*
G01X12257100Y2117500D02*
X12284700Y2154500D01*
X12308300Y2175700D01*
X12339800Y2186300D01*
X12367300Y2175700D01*
X12387000Y2154500D01*
X12402800Y2122800D01*
X12406700Y2085700D01*
X12402800Y2054000D01*
X12387000Y2022200D01*
X12363400Y1995800D01*
X12335800Y1985200D01*
X12304300Y1995800D01*
X12276800Y2027500D01*
X12261000Y2075200D01*
X12257100Y2128100D01*
X12265000Y2196900D01*
X12276800Y2233900D01*
X12296500Y2270900D01*
X12324000Y2297400D01*
X12351600Y2302700D01*
X12379100Y2292100D01*
X12398800Y2265700D01*
G01X12638900Y1985200D02*
X12646800Y2054000D01*
X12658600Y2112200D01*
X12674400Y2165100D01*
X12694000Y2223300D01*
X12725500Y2302700D01*
X12568100D01*
G01X14681800Y1350200D02*
Y1667700D01*
X14862800Y1350200D01*
Y1667700D01*
G01X15087200Y1350200D02*
X15055700Y1355500D01*
X15028200Y1376700D01*
X15004500Y1408400D01*
X14988800Y1445400D01*
X14980900Y1487800D01*
Y1530100D01*
X14988800Y1572500D01*
X15004500Y1609500D01*
X15028200Y1641200D01*
X15055700Y1662400D01*
X15087200Y1667700D01*
X15118700Y1662400D01*
X15146200Y1641200D01*
X15169900Y1609500D01*
X15185600Y1572500D01*
X15193500Y1530100D01*
Y1487800D01*
X15185600Y1445400D01*
X15169900Y1408400D01*
X15146200Y1376700D01*
X15118700Y1355500D01*
X15087200Y1350200D01*
G01X15311600D02*
Y1667700D01*
X15492600Y1350200D01*
Y1667700D01*
G01X15665800Y1456000D02*
X15768200D01*
G01X15953200Y1350200D02*
Y1667700D01*
X16047600D01*
X16079100Y1651800D01*
X16102800Y1614800D01*
X16110600Y1572500D01*
X16102800Y1530100D01*
X16083100Y1498400D01*
X16047600Y1482500D01*
X15953200D01*
G01X16268100Y1667700D02*
Y1350200D01*
X16425500D01*
G01X16563300D02*
X16661700Y1667700D01*
X16760100Y1350200D01*
G01X16724700Y1461300D02*
X16598700D01*
G01X16976600Y1667700D02*
Y1350200D01*
G01X16886100Y1667700D02*
X17067100D01*
G01X17370200Y1350200D02*
X17212800D01*
Y1667700D01*
X17370200D01*
G01X17307200Y1514200D02*
X17212800D01*
G01X17519800Y1350200D02*
Y1667700D01*
X17598500D01*
X17630000Y1651800D01*
X17653600Y1630700D01*
X17673300Y1598900D01*
X17689100Y1561900D01*
X17693000Y1508900D01*
X17689100Y1456000D01*
X17673300Y1419000D01*
X17653600Y1387200D01*
X17630000Y1366100D01*
X17598500Y1350200D01*
X17519800D01*
G01X14575600Y3731500D02*
Y1191500D01*
G01X15323400Y2620200D02*
Y2937700D01*
X15417800D01*
X15449300Y2921800D01*
X15473000Y2884800D01*
X15480800Y2842500D01*
X15473000Y2800100D01*
X15453300Y2768400D01*
X15417800Y2752500D01*
X15323400D01*
G01X15638300Y2937700D02*
Y2620200D01*
X15795700D01*
G01X15933500D02*
X16031900Y2937700D01*
X16130300Y2620200D01*
G01X16094900Y2731300D02*
X15968900D01*
G01X16346800Y2937700D02*
Y2620200D01*
G01X16256300Y2937700D02*
X16437300D01*
G01X16740400Y2620200D02*
X16583000D01*
Y2937700D01*
X16740400D01*
G01X16677400Y2784200D02*
X16583000D01*
G01X16890000Y2620200D02*
Y2937700D01*
X16968700D01*
X17000200Y2921800D01*
X17023800Y2900700D01*
X17043500Y2868900D01*
X17059300Y2831900D01*
X17063200Y2778900D01*
X17059300Y2726000D01*
X17043500Y2689000D01*
X17023800Y2657200D01*
X17000200Y2636100D01*
X16968700Y2620200D01*
X16890000D01*
G01X15323400Y1985200D02*
Y2302700D01*
X15417800D01*
X15449300Y2286800D01*
X15473000Y2249800D01*
X15480800Y2207500D01*
X15473000Y2165100D01*
X15453300Y2133400D01*
X15417800Y2117500D01*
X15323400D01*
G01X15638300Y2302700D02*
Y1985200D01*
X15795700D01*
G01X15933500D02*
X16031900Y2302700D01*
X16130300Y1985200D01*
G01X16094900Y2096300D02*
X15968900D01*
G01X16346800Y2302700D02*
Y1985200D01*
G01X16256300Y2302700D02*
X16437300D01*
G01X16740400Y1985200D02*
X16583000D01*
Y2302700D01*
X16740400D01*
G01X16677400Y2149200D02*
X16583000D01*
G01X16890000Y1985200D02*
Y2302700D01*
X16968700D01*
X17000200Y2286800D01*
X17023800Y2265700D01*
X17043500Y2233900D01*
X17059300Y2196900D01*
X17063200Y2143900D01*
X17059300Y2091000D01*
X17043500Y2054000D01*
X17023800Y2022200D01*
X17000200Y2001100D01*
X16968700Y1985200D01*
X16890000D01*
G01X15323400Y3255200D02*
Y3572700D01*
X15417800D01*
X15449300Y3556800D01*
X15473000Y3519800D01*
X15480800Y3477500D01*
X15473000Y3435100D01*
X15453300Y3403400D01*
X15417800Y3387500D01*
X15323400D01*
G01X15638300Y3572700D02*
Y3255200D01*
X15795700D01*
G01X15933500D02*
X16031900Y3572700D01*
X16130300Y3255200D01*
G01X16094900Y3366300D02*
X15968900D01*
G01X16346800Y3572700D02*
Y3255200D01*
G01X16256300Y3572700D02*
X16437300D01*
G01X16740400Y3255200D02*
X16583000D01*
Y3572700D01*
X16740400D01*
G01X16677400Y3419200D02*
X16583000D01*
G01X16890000Y3255200D02*
Y3572700D01*
X16968700D01*
X17000200Y3556800D01*
X17023800Y3535700D01*
X17043500Y3503900D01*
X17059300Y3466900D01*
X17063200Y3413900D01*
X17059300Y3361000D01*
X17043500Y3324000D01*
X17023800Y3292200D01*
X17000200Y3271100D01*
X16968700Y3255200D01*
X16890000D01*
G01X17803300Y3731500D02*
Y1191500D01*
G01X18472500Y3255200D02*
X18441000Y3260500D01*
X18413500Y3281700D01*
X18389800Y3313400D01*
X18374100Y3350400D01*
X18366200Y3392800D01*
Y3435100D01*
X18374100Y3477500D01*
X18389800Y3514500D01*
X18413500Y3546200D01*
X18441000Y3567400D01*
X18472500Y3572700D01*
X18504000Y3567400D01*
X18531500Y3546200D01*
X18555200Y3514500D01*
X18570900Y3477500D01*
X18578800Y3435100D01*
Y3392800D01*
X18570900Y3350400D01*
X18555200Y3313400D01*
X18531500Y3281700D01*
X18504000Y3260500D01*
X18472500Y3255200D01*
G01X18504000Y3339900D02*
X18551200Y3255200D01*
G01X18787400Y3572700D02*
Y3255200D01*
G01X18696900Y3572700D02*
X18877900D01*
G01X19102300Y3255200D02*
Y3398100D01*
X19023600Y3572700D01*
G01X19181000D02*
X19102300Y3398100D01*
G01X18834600Y1350200D02*
Y1667700D01*
X18689000Y1440200D01*
X18885800D01*
G01X18834600Y2620200D02*
Y2937700D01*
X18689000Y2710200D01*
X18885800D01*
G01X18834600Y1985200D02*
Y2302700D01*
X18689000Y2075200D01*
X18885800D01*
M02*
