G04 ================== begin FILE IDENTIFICATION RECORD ==================*
G04 Layout Name:  C:/Users/user/Desktop/exam/ex1/allegro/ex2_rlc.brd*
G04 Film Name:    SilkB*
G04 File Format:  Gerber RS274X*
G04 File Origin:  Cadence Allegro 17.2-S038*
G04 Origin Date:  Thu Jul 11 11:34:40 2019*
G04 *
G04 Layer:  REF DES/SILKSCREEN_TOP*
G04 Layer:  REF DES/SILKSCREEN_BOTTOM*
G04 Layer:  PACKAGE GEOMETRY/SILKSCREEN_TOP*
G04 Layer:  PACKAGE GEOMETRY/SILKSCREEN_BOTTOM*
G04 Layer:  BOARD GEOMETRY/SILKSCREEN_TOP*
G04 Layer:  BOARD GEOMETRY/SILKSCREEN_BOTTOM*
G04 *
G04 Offset:    (0.000 0.000)*
G04 Mirror:    No*
G04 Mode:      Positive*
G04 Rotation:  0*
G04 FullContactRelief:  No*
G04 UndefLineWidth:     0.200*
G04 ================== end FILE IDENTIFICATION RECORD ====================*
%FSLAX25Y25*MOMM*%
%IR0*IPPOS*OFA0.00000B0.00000*MIA0B0*SFA1.00000B1.00000*%
%ADD10C,.2*%
G75*
%LPD*%
G75*
G54D10*
G01X889000Y2159000D02*
X1143000D01*
Y1651000D01*
X889000D01*
Y2159000D01*
G01X1171400Y2162000D02*
X1163600Y2157100D01*
X1158300Y2151300D01*
X1155700Y2144400D01*
X1158300Y2136700D01*
X1163600Y2130800D01*
X1171400Y2125000D01*
X1181900Y2123000D01*
X1234400D01*
G01X1155700Y2063800D02*
X1234400D01*
X1218700Y2075500D01*
G01X1155700D02*
Y2052100D01*
G01X1638300Y2644600D02*
X1717000D01*
Y2620200D01*
X1713100Y2612400D01*
X1707800Y2607600D01*
X1697300Y2605600D01*
X1686800Y2607600D01*
X1680300Y2613400D01*
X1676300Y2620200D01*
Y2644600D01*
G01Y2620200D02*
X1638300Y2605600D01*
G01Y2546400D02*
X1717000D01*
X1701300Y2558100D01*
G01X1638300D02*
Y2534700D01*
G01X1168400Y2921000D02*
X1879600D01*
Y2667000D01*
X1168400D01*
Y2921000D01*
G01X3344700Y2974300D02*
Y2895600D01*
X3383700D01*
G01X3442900D02*
Y2974300D01*
X3431200Y2958600D01*
G01Y2895600D02*
X3454600D01*
G01X3454400Y2705100D02*
Y2882900D01*
X3657600D01*
Y2705100D01*
X3454400D01*
G01X4486100Y2171700D02*
Y2093000D01*
X4461700D01*
X4453900Y2096900D01*
X4449100Y2102200D01*
X4447100Y2112700D01*
X4449100Y2123200D01*
X4454900Y2129700D01*
X4461700Y2133700D01*
X4486100D01*
G01X4461700D02*
X4447100Y2171700D01*
G01X4406400Y2106100D02*
X4400600Y2098200D01*
X4393700Y2094300D01*
X4386000Y2093000D01*
X4376200Y2095600D01*
X4369400Y2102200D01*
X4367500Y2110100D01*
X4368400Y2117900D01*
X4372300Y2124500D01*
X4391800Y2137600D01*
X4400600Y2146800D01*
X4406400Y2159900D01*
X4408300Y2171700D01*
X4367500D01*
G01X4762500Y2641600D02*
Y1930400D01*
X4508500D01*
Y2641600D01*
X4762500D01*
G01X5495100Y3012000D02*
X5485500Y3018400D01*
X5474200Y3022600D01*
X5461400D01*
X5446900Y3016200D01*
X5435600Y3005700D01*
X5427600Y2993000D01*
X5421100Y2971800D01*
X5419500Y2952700D01*
X5422800Y2933700D01*
X5427600Y2921000D01*
X5437200Y2908300D01*
X5448500Y2899800D01*
X5459700Y2895600D01*
X5471000D01*
X5482300Y2899800D01*
X5491900Y2906200D01*
X5500000Y2914600D01*
G01X5589200Y2895600D02*
Y3022600D01*
X5569900Y2997200D01*
G01Y2895600D02*
X5608500D01*
G01X6286500Y2667000D02*
G03I-254000J0D01*
M02*
