G04 ================== begin FILE IDENTIFICATION RECORD ==================*
G04 Layout Name:  C:/Users/user/Desktop/exam/ex1/allegro/ex2_rlc.brd*
G04 Film Name:    TOP*
G04 File Format:  Gerber RS274X*
G04 File Origin:  Cadence Allegro 17.2-S038*
G04 Origin Date:  Thu Jul 11 11:34:40 2019*
G04 *
G04 Layer:  ETCH/TOP*
G04 Layer:  PIN/TOP*
G04 Layer:  VIA CLASS/TOP*
G04 *
G04 Offset:    (0.000 0.000)*
G04 Mirror:    No*
G04 Mode:      Positive*
G04 Rotation:  0*
G04 FullContactRelief:  No*
G04 UndefLineWidth:     0.000*
G04 ================== end FILE IDENTIFICATION RECORD ====================*
%FSLAX25Y25*MOMM*%
%IR0*IPPOS*OFA0.00000B0.00000*MIA0B0*SFA1.00000B1.00000*%
%ADD11C,1.524*%
%ADD12C,1.651*%
%ADD13R,1.27X1.6*%
%ADD10C,.635*%
%ADD14C,.3*%
%ADD15C,.254*%
%ADD16R,5.084X5.084*%
G75*
%LPD*%
G75*
G36*
G01X6159300Y4190800D02*
X6667700D01*
Y4700000D01*
X6700000D01*
Y300000D01*
X300000D01*
Y4178100D01*
X813000D01*
Y4686500D01*
X300000D01*
Y4700000D01*
X6159300D01*
Y4190800D01*
G37*
%LPC*%
G75*
G36*
G01X970000Y2128800D02*
Y2690100D01*
G02X1062000I46000J103900D01*
G01Y2128800D01*
G02X970000I-46000J-96800D01*
G37*
G36*
G01X3810200Y2874000D02*
Y2832300D01*
X4534300D01*
G02X4736700I101200J-38300D01*
G01X5938200D01*
G02Y2755700I94300J-38300D01*
G01X4736700D01*
G02X4534300I-101200J38300D01*
G01X3810200D01*
Y2714000D01*
G02X3784600Y2688400I-25600J0D01*
G01X3657600D01*
G02X3632000Y2714000I0J25600D01*
G01Y2874000D01*
G02X3657600Y2899600I25600J0D01*
G01X3784600D01*
G02X3810200Y2874000I0J-25600D01*
G37*
G36*
G01X3301800Y2755700D02*
X2133200D01*
G02Y2832300I-101200J38300D01*
G01X3301800D01*
Y2874000D01*
G02X3327400Y2899600I25600J0D01*
G01X3454400D01*
G02X3480000Y2874000I0J-25600D01*
G01Y2714000D01*
G02X3454400Y2688400I-25600J0D01*
G01X3327400D01*
G02X3301800Y2714000I0J25600D01*
G01Y2755700D01*
G37*
G36*
G01X5986500Y1824000D02*
Y2443200D01*
G02X6078500I46000J96800D01*
G01Y1732000D01*
X4739400D01*
G02X4531600I-103900J46000D01*
G01X1112800D01*
G02Y1824000I-96800J46000D01*
G01X4531600D01*
G02X4739400I103900J-46000D01*
G01X5986500D01*
G37*
G54D16*
X6413500Y571500D03*
X571500D03*
%LPD*%
G75*
G54D10*
X571500Y571500D03*
X558800Y4432300D03*
X6413500Y571500D03*
Y4445000D03*
G54D11*
X1016000Y1778000D03*
Y2032000D03*
X6032500Y2540000D03*
Y2794000D03*
G54D12*
X1016000D03*
X2032000D03*
X4635500Y1778000D03*
Y2794000D03*
G54D13*
X3390900D03*
X3721100D03*
G54D14*
G01X1016000Y1778000D02*
X4635500D01*
G01X1016000Y2794000D02*
Y2032000D01*
G01X6032500Y2540000D02*
Y1778000D01*
X4635500D01*
G54D15*
G01X3390900Y2794000D02*
X2032000D01*
G01X4635500D02*
X3721100D01*
G01X6032500D02*
X4635500D01*
M02*
